<?xml version="1.0" encoding="UTF-8"?>
<svg width="146px" height="35px" viewBox="0 0 146 35" version="1.1" xmlns="http://www.w3.org/2000/svg" xmlns:xlink="http://www.w3.org/1999/xlink">
    <title>Tyler logo</title>
    <g id="Symbols" stroke="none" stroke-width="1" fill="none" fill-rule="evenodd">
        <path d="M13.1974963,28.9217163 C14.7365194,28.9217163 15.9842543,30.1691477 15.9842543,31.7059471 C15.9842543,33.2442458 14.7365194,34.4901778 13.1974963,34.4901778 C11.6569718,34.4901778 10.4092369,33.2442458 10.4092369,31.7059471 C10.4092369,30.1691477 11.6554703,28.9217163 13.1974963,28.9217163 Z M109.076383,19.9827914 C110.842131,19.9827914 111.657438,21.1087781 111.657438,22.4911479 L111.657438,27.5393465 C111.657438,28.9217163 110.842131,30.047703 109.076383,30.047703 C107.309134,30.047703 106.495329,28.9217163 106.495329,27.5393465 L106.495329,22.4911479 C106.495329,21.1087781 107.309134,19.9827914 109.076383,19.9827914 Z M120.88557,19.9827914 C122.651318,19.9827914 123.466625,21.1087781 123.466625,22.4911479 L123.466625,27.5393465 C123.466625,28.9217163 122.651318,30.047703 120.88557,30.047703 C119.119823,30.047703 118.304516,28.9217163 118.304516,27.5393465 L118.304516,22.4911479 C118.304516,21.1087781 119.119823,19.9827914 120.88557,19.9827914 Z M143.49945,19.9827914 C144.871809,19.9827914 145.687115,20.9723403 145.837264,22.3562094 L144.233677,22.5331288 C144.164609,21.6920122 143.717166,21.4476237 143.33729,21.4476237 C142.793752,21.4476237 142.494956,21.799963 142.494956,22.4101848 C142.494956,24.0789241 145.918344,24.8795591 145.918344,27.5393465 C145.918344,29.1526111 144.831268,30.047703 143.25621,30.047703 C141.693163,30.047703 140.796776,28.8002717 140.727707,27.3354395 L142.332796,27.1045448 C142.400363,28.095593 142.793752,28.5828708 143.33729,28.5828708 C143.921368,28.5828708 144.314757,28.271013 144.314757,27.6877789 C144.314757,25.7476633 140.891369,25.2333978 140.891369,22.4236787 C140.891369,20.8643895 141.84181,19.9827914 143.49945,19.9827914 Z M127.436554,19.9827914 C129.121221,19.9827914 129.962053,21.2032351 129.962053,22.6680673 L129.962053,23.2932823 L128.359967,23.2932823 C128.359967,21.8269507 128.061172,21.4476237 127.394512,21.4476237 C126.987609,21.4476237 126.648273,21.6920122 126.648273,22.5181356 L126.648273,27.5528404 C126.648273,28.1765561 126.852476,28.5828708 127.436554,28.5828708 C128.115225,28.5828708 128.359967,28.2035438 128.359967,27.2274887 L128.359967,26.2769221 L127.286405,26.2769221 L127.286405,24.9485277 L130.044635,24.9485277 L130.044635,29.9127645 L129.229328,29.9127645 L128.917019,29.1795988 C128.414021,29.7778261 128.007118,30.047703 127.218838,30.047703 C125.88702,30.047703 124.963606,29.0986357 124.963606,27.5393465 L124.963606,22.4911479 C124.963606,21.1087781 125.778913,19.9827914 127.436554,19.9827914 Z M89.0991128,19.9827914 C90.78378,19.9827914 91.5990869,21.2032351 91.5990869,22.6680673 L91.5990869,23.3877392 L89.9129182,23.3877392 L89.9129182,22.6275857 C89.9129182,21.799963 89.5345437,21.4476237 89.0991128,21.4476237 C88.4189396,21.4476237 88.2027257,21.799963 88.2027257,22.5331288 L88.2027257,27.4973657 C88.2027257,28.2305314 88.4189396,28.5828708 89.0991128,28.5828708 C89.7102176,28.5828708 89.9129182,28.2305314 89.9129182,27.5933219 L89.9129182,26.4133599 L91.5990869,26.4133599 L91.5990869,27.5393465 C91.5990869,28.9217163 90.78378,30.047703 89.0991128,30.047703 C87.3333653,30.047703 86.5180584,28.9217163 86.5180584,27.5393465 L86.5180584,22.4911479 C86.5180584,21.1087781 87.3333653,19.9827914 89.0991128,19.9827914 Z M50.0139319,20.1177299 L51.1956014,23.8495287 L51.2241296,23.8495287 L52.3517455,20.1177299 L54.0634395,20.1177299 L52.0259231,25.8436196 L52.0259231,29.9127645 L50.3412559,29.9127645 L50.3412559,25.8436196 L48.3022379,20.1177299 L50.0139319,20.1177299 Z M79.7628731,20.1177299 L79.7628731,21.5825621 L78.1322594,21.5825621 L78.1322594,29.9127645 L76.4475921,29.9127645 L76.4475921,21.5825621 L74.8169784,21.5825621 L74.8169784,20.1177299 L79.7628731,20.1177299 Z M139.775765,20.1177299 L139.775765,21.5825621 L136.949969,21.5825621 L136.949969,24.1074111 L139.12412,24.1074111 L139.12412,25.5722433 L136.949969,25.5722433 L136.949969,28.4479323 L139.964952,28.4479323 L139.964952,29.9127645 L135.265301,29.9127645 L135.265301,20.1177299 L139.775765,20.1177299 Z M56.4838349,20.1177299 L56.4838349,28.4479323 L59.1324561,28.4479323 L59.1324561,29.9127645 L54.7991676,29.9127645 L54.7991676,20.1177299 L56.4838349,20.1177299 Z M94.8603144,20.1177299 L94.8603144,24.1074111 L96.6545901,24.1074111 L96.6545901,20.1177299 L98.3392573,20.1177299 L98.3392573,29.9127645 L96.6545901,29.9127645 L96.6545901,25.5722433 L94.8603144,25.5722433 L94.8603144,29.9127645 L93.1756471,29.9127645 L93.1756471,20.1177299 L94.8603144,20.1177299 Z M133.538593,20.1177299 L133.538593,29.9127645 L131.853925,29.9127645 L131.853925,20.1177299 L133.538593,20.1177299 Z M68.2930219,20.1177299 C70.1803898,20.1177299 71.1458452,20.9183649 71.1458452,23.0084121 C71.1458452,24.5811951 70.5347404,25.2184046 69.9641758,25.4762871 L71.3905874,29.9127645 L69.6788934,29.9127645 L68.4837106,25.8571134 C68.2659952,25.8841011 67.9116445,25.897595 67.6143503,25.897595 L67.6143503,29.9127645 L65.9281815,29.9127645 L65.9281815,20.1177299 L68.2930219,20.1177299 Z M114.756505,20.1177299 L114.756505,28.4479323 L117.406627,28.4479323 L117.406627,29.9127645 L113.071837,29.9127645 L113.071837,20.1177299 L114.756505,20.1177299 Z M48.1250626,20.1177299 L48.1250626,21.5825621 L46.4944488,21.5825621 L46.4944488,29.9127645 L44.8097816,29.9127645 L44.8097816,21.5825621 L43.1791679,21.5825621 L43.1791679,20.1177299 L48.1250626,20.1177299 Z M64.5408085,20.1177299 L64.5408085,21.5825621 L61.715012,21.5825621 L61.715012,24.1074111 L63.8891636,24.1074111 L63.8891636,25.5722433 L61.715012,25.5722433 L61.715012,28.4479323 L64.7314972,28.4479323 L64.7314972,29.9127645 L60.0303447,29.9127645 L60.0303447,20.1177299 L64.5408085,20.1177299 Z M85.1306854,20.1177299 L85.1306854,21.5825621 L82.3048888,21.5825621 L82.3048888,24.1074111 L84.477539,24.1074111 L84.477539,25.5722433 L82.3048888,25.5722433 L82.3048888,28.4479323 L85.3198726,28.4479323 L85.3198726,29.9127645 L80.6202216,29.9127645 L80.6202216,20.1177299 L85.1306854,20.1177299 Z M101.397784,20.1177299 L103.448814,25.7206756 L103.477342,25.7206756 L103.477342,20.1177299 L104.998348,20.1177299 L104.998348,29.9127645 L103.531396,29.9127645 L101.384271,23.794054 L101.357244,23.794054 L101.357244,29.9127645 L99.8362388,29.9127645 L99.8362388,20.1177299 L101.397784,20.1177299 Z M17.942192,24.1838762 C19.4812151,24.1838762 20.7289499,25.4298082 20.7289499,26.9666076 C20.7289499,28.5049064 19.4812151,29.7523377 17.942192,29.7508397 C16.4031689,29.7508397 15.1554327,28.5049064 15.1554327,26.9666076 C15.1539325,25.4313076 16.4031689,24.1838762 17.942192,24.1838762 Z M120.88557,21.4476237 C120.205397,21.4476237 119.989183,21.799963 119.989183,22.5331288 L119.989183,27.4973657 C119.989183,28.2305314 120.205397,28.5828708 120.88557,28.5828708 C121.565744,28.5828708 121.781958,28.2305314 121.781958,27.4973657 L121.781958,22.5331288 C121.781958,21.799963 121.565744,21.4476237 120.88557,21.4476237 Z M109.076383,21.4476237 C108.39621,21.4476237 108.179996,21.799963 108.179996,22.5331288 L108.179996,27.4973657 C108.179996,28.2305314 108.39621,28.5828708 109.076383,28.5828708 C109.755055,28.5828708 109.97277,28.2305314 109.97277,27.4973657 L109.97277,22.5331288 C109.97277,21.799963 109.755055,21.4476237 109.076383,21.4476237 Z M27.4841352,24.2243578 C28.0997444,24.2243578 28.5982378,24.7236302 28.5982378,25.3368506 C28.5982378,25.9470724 28.0997444,26.4478441 27.4841352,26.4478441 C26.8700274,26.4478441 26.3715341,25.9470724 26.3715341,25.3368506 C26.3715341,24.7236302 26.8700274,24.2243578 27.4841352,24.2243578 Z M27.4841352,24.3742894 C26.9496062,24.3742894 26.5502109,24.8000953 26.5502109,25.3368506 C26.5502109,25.8721066 26.9496062,26.2979125 27.4841352,26.2979125 C28.0186642,26.2979125 28.4180594,25.8721066 28.4180594,25.3368506 C28.4180594,24.8000953 28.0186642,24.3742894 27.4841352,24.3742894 Z M27.5787288,24.6756521 C27.8745215,24.6756521 28.0081538,24.8060926 28.0081538,25.0414853 C28.0081538,25.276878 27.8550022,25.3788315 27.7003492,25.4103171 L28.0712162,25.9980492 L27.8640111,25.9980492 L27.505156,25.4103171 L27.2499034,25.4103171 L27.2499034,25.9980492 L27.0697251,25.9980492 L27.0697251,24.6756521 L27.5787288,24.6756521 Z M27.5381887,24.827083 L27.2499034,24.827083 L27.2499034,25.2618848 L27.4586099,25.2618848 C27.6312808,25.2618848 27.826474,25.2693814 27.826474,25.039986 C27.826474,24.8540707 27.6763254,24.827083 27.5381887,24.827083 Z M22.6883891,19.4445368 C24.2274122,19.4445368 25.475147,20.6919681 25.475147,22.2287675 C25.475147,23.7670663 24.2274122,25.0129983 22.6883891,25.0115003 C21.1493659,25.0115003 19.9016298,23.7670663 19.9016298,22.2287675 C19.9001296,20.6919681 21.1478645,19.4460361 22.6883891,19.4445368 Z M32.1792818,19.4445368 C33.7198064,19.4445368 34.9660397,20.6919681 34.9675412,22.2287675 C34.9660397,23.7670663 33.7198064,25.0129983 32.1792818,25.0115003 C30.6402587,25.0115003 29.3910223,23.7670663 29.3910223,22.2287675 C29.3910223,20.6919681 30.6387572,19.4460361 32.1792818,19.4445368 Z M13.1974963,19.4445368 C14.7365194,19.4445368 15.9842543,20.6919681 15.9842543,22.2287675 C15.9842543,23.7670663 14.7365194,25.0129983 13.1974963,25.0115003 C11.6569718,25.0115003 10.4092369,23.7670663 10.4092369,22.2287675 C10.4092369,20.6919681 11.6554703,19.4460361 13.1974963,19.4445368 Z M68.2104402,21.501599 L67.6143503,21.501599 L67.6143503,24.5137259 L68.2104402,24.5137259 C69.1218422,24.5137259 69.461178,24.173381 69.461178,23.0084121 C69.461178,21.8404446 69.1218422,21.501599 68.2104402,21.501599 Z M8.45129924,14.7066967 C9.99032234,14.7066967 11.2380572,15.9526287 11.2380572,17.4894281 C11.2380572,19.0277268 9.99032234,20.2751582 8.45129924,20.2736602 C6.91227614,20.2736602 5.66453996,19.0277268 5.66453996,17.4894281 C5.66303983,15.9526287 6.91077465,14.708196 8.45129924,14.7066967 Z M27.4345861,14.7066967 C28.9736093,14.7066967 30.2213441,15.9526287 30.2213441,17.4894281 C30.2213441,19.0277268 28.9736093,20.2751582 27.4345861,20.2736602 C25.8940616,20.2736602 24.6463254,19.0277268 24.6463254,17.4894281 C24.6448252,15.9526287 25.8940616,14.708196 27.4345861,14.7066967 Z M3.70510214,9.96735731 C5.24562673,9.96735731 6.49336156,11.2132893 6.49336156,12.751588 C6.49336156,14.2883874 5.24562673,15.5358187 3.70510214,15.5358187 C2.16607904,15.5343194 0.918344214,14.2883874 0.918344214,12.751588 C0.918344214,11.2132893 2.16607904,9.96735731 3.70510214,9.96735731 Z M22.6883891,9.96735731 C24.2274122,9.96735731 25.475147,11.2132893 25.475147,12.751588 C25.475147,14.2883874 24.2274122,15.5358187 22.6883891,15.5358187 C21.1493659,15.5343194 19.9016298,14.2883874 19.9016298,12.751588 C19.9001296,11.2132893 21.1478645,9.96735731 22.6883891,9.96735731 Z M13.1974963,9.96735731 C14.7365194,9.96735731 15.9842543,11.2132893 15.9842543,12.751588 C15.9842543,14.2883874 14.7365194,15.5358187 13.1974963,15.5358187 C11.6569718,15.5343194 10.4092369,14.2883874 10.4092369,12.751588 C10.4092369,11.2132893 11.6554703,9.96735731 13.1974963,9.96735731 Z M67.1383792,5.17404249 C68.9041267,5.17404249 69.7194336,6.30002918 69.7194336,7.68239898 L69.7194336,12.7305976 C69.7194336,14.1144667 68.9041267,15.2404534 67.1383792,15.2404534 C65.3711302,15.2404534 64.5558234,14.1144667 64.5558234,12.7305976 L64.5558234,7.68239898 C64.5558234,6.30002918 65.3711302,5.17404249 67.1383792,5.17404249 Z M51.8487478,5.30898098 L53.0439306,11.0348706 L53.0724588,11.0348706 L54.2676416,5.30898098 L56.4823334,5.30898098 L56.4823334,15.1040156 L55.0153816,15.1040156 L55.0153816,7.45300356 L54.9868534,7.45300356 L53.4658481,15.1040156 L52.6505413,15.1040156 L51.129536,7.45300356 L51.1025092,7.45300356 L51.1025092,15.1040156 L49.634056,15.1040156 L49.634056,5.30898098 L51.8487478,5.30898098 Z M71.976167,5.30898098 L73.0091893,11.5506355 L73.036216,11.5506355 L74.1368052,5.30898098 L75.5226768,5.30898098 L76.6638061,11.5506355 L76.6908328,11.5506355 L77.6277601,5.30898098 L79.2043203,5.30898098 L77.479113,15.1040156 L76.0662147,15.1040156 L74.8425036,8.63296563 L74.8154769,8.63296563 L73.6743476,15.1040156 L72.2614493,15.1040156 L70.3996067,5.30898098 L71.976167,5.30898098 Z M84.6547143,5.30898098 L84.6547143,6.7753125 L81.8289178,6.7753125 L81.8289178,9.29866215 L84.0030694,9.29866215 L84.0030694,10.7634944 L81.8289178,10.7634944 L81.8289178,13.6391834 L84.8454031,13.6391834 L84.8454031,15.1040156 L80.1442505,15.1040156 L80.1442505,5.30898098 L84.6547143,5.30898098 Z M97.2116414,5.30898098 L97.2116414,6.7753125 L94.3858448,6.7753125 L94.3858448,9.29866215 L96.5599965,9.29866215 L96.5599965,10.7634944 L94.3858448,10.7634944 L94.3858448,13.6391834 L97.4023301,13.6391834 L97.4023301,15.1040156 L92.7011776,15.1040156 L92.7011776,5.30898098 L97.2116414,5.30898098 Z M110.63943,5.30898098 C112.445718,5.30898098 113.249013,6.23255993 113.249013,7.90129919 C113.249013,8.74241574 112.894662,9.62251451 112.079355,9.94936551 C112.935202,10.3286926 113.4382,11.0078829 113.4382,12.2688081 C113.4382,13.883572 112.717487,15.1040156 110.803092,15.1040156 L108.139456,15.1040156 L108.139456,5.30898098 L110.63943,5.30898098 Z M115.830067,5.30898098 L117.011737,9.04077972 L117.040265,9.04077972 L118.167881,5.30898098 L119.879575,5.30898098 L117.842058,11.0348706 L117.842058,15.1040156 L116.157391,15.1040156 L116.157391,11.0348706 L114.119875,5.30898098 L115.830067,5.30898098 Z M88.4054263,5.30898098 C90.2927941,5.30898098 91.2582496,6.10961598 91.2582496,8.19966317 C91.2582496,9.77244616 90.6471448,10.4096557 90.0765801,10.6675381 L91.5029918,15.1040156 L89.7912978,15.1040156 L88.596115,11.0483645 C88.3783995,11.0753522 88.0255503,11.088846 87.7252531,11.088846 L87.7252531,15.1040156 L86.0420874,15.1040156 L86.0420874,5.30898098 L88.4054263,5.30898098 Z M60.315627,5.30898098 C62.3936836,5.30898098 63.3576376,6.10961598 63.3576376,8.19966317 C63.3576376,10.288211 62.3936836,11.088846 60.315627,11.088846 L59.5814004,11.088846 L59.5814004,15.1040156 L57.8967332,15.1040156 L57.8967332,5.30898098 L60.315627,5.30898098 Z M101.098989,5.30898098 C102.837709,5.30898098 103.761123,6.25954763 103.761123,8.26713241 L103.761123,12.1473635 C103.761123,14.1549483 102.837709,15.1040156 101.098989,15.1040156 L98.5990144,15.1040156 L98.5990144,5.30898098 L101.098989,5.30898098 Z M48.3427781,5.30898098 L48.3427781,6.7753125 L45.5169815,6.7753125 L45.5169815,9.29866215 L47.6896317,9.29866215 L47.6896317,10.7634944 L45.5169815,10.7634944 L45.5169815,13.6391834 L48.5334668,13.6391834 L48.5334668,15.1040156 L43.8323142,15.1040156 L43.8323142,5.30898098 L48.3427781,5.30898098 Z M67.1383792,6.6388747 C66.4582061,6.6388747 66.2404906,6.99121408 66.2404906,7.72437984 L66.2404906,12.6886167 C66.2404906,13.4217825 66.4582061,13.7741219 67.1383792,13.7741219 C67.8170509,13.7741219 68.0347663,13.4217825 68.0347663,12.6886167 L68.0347663,7.72437984 C68.0347663,6.99121408 67.8170509,6.6388747 67.1383792,6.6388747 Z M100.86776,6.6928501 L100.283682,6.6928501 L100.283682,13.7201465 L100.86776,13.7201465 C101.764147,13.7201465 102.076456,13.3813009 102.076456,12.3497712 L102.076456,8.06322537 C102.076456,7.03169562 101.764147,6.6928501 100.86776,6.6928501 Z M110.367661,10.709519 L109.824123,10.709519 L109.824123,13.7201465 L110.529822,13.7201465 C111.42771,13.7201465 111.752031,13.2058809 111.752031,12.2148327 C111.752031,11.21179 111.372155,10.709519 110.367661,10.709519 Z M17.942192,5.2295172 C19.4812151,5.2295172 20.7289499,6.47544921 20.7289499,8.01224861 C20.7289499,9.55054732 19.4812151,10.7979786 17.942192,10.7964807 C16.4031689,10.7964807 15.1554327,9.55054732 15.1554327,8.01224861 C15.1539325,6.47544921 16.4031689,5.2295172 17.942192,5.2295172 Z M60.2330453,6.6928501 L59.5814004,6.6928501 L59.5814004,9.70497692 L60.2330453,9.70497692 C61.3336345,9.70497692 61.6744718,9.36613139 61.6744718,8.19966317 C61.6744718,7.03169562 61.3336345,6.6928501 60.2330453,6.6928501 Z M88.324346,6.6928501 L87.7252531,6.6928501 L87.7252531,9.70497692 L88.324346,9.70497692 C89.2342465,9.70497692 89.5735823,9.36613139 89.5735823,8.19966317 C89.5735823,7.03169562 89.2342465,6.6928501 88.324346,6.6928501 Z M110.462255,6.6928501 L109.824123,6.6928501 L109.824123,9.32564985 L110.43673,9.32564985 C111.07336,9.32564985 111.562844,8.89084807 111.562844,8.07671921 C111.562844,7.16813342 111.209995,6.6928501 110.462255,6.6928501 Z M22.6883891,0.490177785 C24.2274122,0.490177785 25.475147,1.73610979 25.475147,3.2744085 C25.475147,4.8112079 24.2274122,6.05863922 22.6883891,6.05863922 C21.1493659,6.05863922 19.9016298,4.8112079 19.9016298,3.2744085 C19.9001296,1.7376091 21.1478645,0.491677102 22.6883891,0.490177785 Z" id="Tyler-logo" fill="#FFFFFF"></path>
    </g>
</svg>